<svg width="27" height="23" viewBox="0 0 27 23" fill="none" xmlns="http://www.w3.org/2000/svg">
<path d="M13.5088 22.8955C12.249 22.8955 11.0449 22.7021 9.89648 22.3154C8.75391 21.9346 7.70508 21.3926 6.75 20.6895C5.80078 19.9863 4.97461 19.1572 4.27148 18.2021C3.56836 17.2529 3.02344 16.207 2.63672 15.0645C2.25586 13.916 2.06543 12.7119 2.06543 11.4521C2.06543 10.1865 2.25586 8.98242 2.63672 7.83984C3.02344 6.69727 3.56836 5.64844 4.27148 4.69336C4.97461 3.73828 5.80078 2.91211 6.75 2.21484C7.70508 1.51172 8.75391 0.966797 9.89648 0.580078C11.0449 0.193359 12.249 0 13.5088 0C14.7744 0 15.9785 0.193359 17.1211 0.580078C18.2637 0.966797 19.3125 1.51172 20.2676 2.21484C21.2227 2.91211 22.0488 3.73828 22.7461 4.69336C23.4492 5.64844 23.9941 6.69727 24.3809 7.83984C24.7676 8.98242 24.9609 10.1865 24.9609 11.4521C24.9609 12.7119 24.7676 13.916 24.3809 15.0645C23.9941 16.207 23.4492 17.2529 22.7461 18.2021C22.0488 19.1572 21.2227 19.9863 20.2676 20.6895C19.3125 21.3926 18.2637 21.9346 17.1211 22.3154C15.9785 22.7021 14.7744 22.8955 13.5088 22.8955ZM13.5088 21.2607C14.5928 21.2607 15.624 21.0938 16.6025 20.7598C17.5869 20.4316 18.4863 19.9658 19.3008 19.3623C20.1211 18.7646 20.8301 18.0586 21.4277 17.2441C22.0312 16.4238 22.4971 15.5244 22.8252 14.5459C23.1533 13.5674 23.3174 12.5361 23.3174 11.4521C23.3174 10.3682 23.1533 9.33691 22.8252 8.3584C22.4971 7.37402 22.0312 6.47461 21.4277 5.66016C20.8301 4.83984 20.1211 4.13086 19.3008 3.5332C18.4863 2.92969 17.5869 2.46387 16.6025 2.13574C15.624 1.80762 14.5928 1.64355 13.5088 1.64355C12.4248 1.64355 11.3936 1.80762 10.415 2.13574C9.43652 2.46387 8.53711 2.92969 7.7168 3.5332C6.90234 4.13086 6.19336 4.83984 5.58984 5.66016C4.99219 6.47461 4.52637 7.37402 4.19238 8.3584C3.86426 9.33691 3.7002 10.3682 3.7002 11.4521C3.7002 12.5361 3.86426 13.5674 4.19238 14.5459C4.52637 15.5244 4.99219 16.4238 5.58984 17.2441C6.19336 18.0586 6.90234 18.7646 7.7168 19.3623C8.53711 19.9658 9.43652 20.4316 10.415 20.7598C11.3936 21.0938 12.4248 21.2607 13.5088 21.2607ZM8.25293 13.0078C7.81934 13.0078 7.44727 12.8555 7.13672 12.5508C6.83203 12.2461 6.67969 11.877 6.67969 11.4434C6.67969 11.0098 6.83203 10.6406 7.13672 10.3359C7.44727 10.0254 7.81934 9.87012 8.25293 9.87012C8.68066 9.87012 9.04688 10.0254 9.35156 10.3359C9.66211 10.6406 9.81738 11.0098 9.81738 11.4434C9.81738 11.877 9.66211 12.2461 9.35156 12.5508C9.04688 12.8555 8.68066 13.0078 8.25293 13.0078ZM13.5 13.0078C13.0664 13.0078 12.6973 12.8555 12.3926 12.5508C12.0879 12.2461 11.9355 11.877 11.9355 11.4434C11.9355 11.0098 12.0879 10.6406 12.3926 10.3359C12.6973 10.0254 13.0664 9.87012 13.5 9.87012C13.9336 9.87012 14.3027 10.0254 14.6074 10.3359C14.918 10.6406 15.0732 11.0098 15.0732 11.4434C15.0732 11.877 14.918 12.2461 14.6074 12.5508C14.3027 12.8555 13.9336 13.0078 13.5 13.0078ZM18.7559 13.0078C18.3223 13.0078 17.9502 12.8555 17.6396 12.5508C17.335 12.2461 17.1826 11.877 17.1826 11.4434C17.1826 11.0098 17.335 10.6406 17.6396 10.3359C17.9502 10.0254 18.3223 9.87012 18.7559 9.87012C19.1895 9.87012 19.5586 10.0254 19.8633 10.3359C20.168 10.6406 20.3203 11.0098 20.3203 11.4434C20.3203 11.877 20.168 12.2461 19.8633 12.5508C19.5586 12.8555 19.1895 13.0078 18.7559 13.0078Z" fill="white"/>
</svg>
